<svg xmlns="http://www.w3.org/2000/svg" width="36.243" height="40" viewBox="0 0 36.243 40">
    <defs>
        <style>
            .cls-1{fill:#ed1f24}
        </style>
    </defs>
    <g id="employee" transform="translate(-24.048)">
        <g id="Group_91" data-name="Group 91" transform="translate(24.048)">
            <g id="Group_90" data-name="Group 90">
                <path id="Path_63" d="M46.443 20.326l-2.985-1.151-1.713-1.713a.584.584 0 0 0-.4-.171v-1.4a6.316 6.316 0 0 0 1.611-3.191 1.728 1.728 0 0 0 .449-.033 1.792 1.792 0 0 0 1.39-1.777v-.449a1.815 1.815 0 0 0-.547-1.3c.549-2.959.106-5.369-1.288-6.979C41.617.611 39.449-.13 36.693.019a8.2 8.2 0 0 0-4.721 1.747A3.1 3.1 0 0 0 29.23 5.21a15.317 15.317 0 0 0 .435 3.6 1.792 1.792 0 0 0-1.01 1.636v.442a1.792 1.792 0 0 0 1.39 1.777 1.727 1.727 0 0 0 .449.033 6.316 6.316 0 0 0 1.615 3.188v1.4a.584.584 0 0 0-.4.171l-1.713 1.713-3.361 1.3a4.039 4.039 0 0 0-2.583 3.93l.477 11.9a.586.586 0 0 0 .585.563h.024a.586.586 0 0 0 .562-.609l-.477-11.9a2.865 2.865 0 0 1 .113-.918l1.9 1.9a2.85 2.85 0 0 1 .84 2.028v8.915a.586.586 0 0 0 1.172 0v-8.911a4.014 4.014 0 0 0-1.183-2.857l-2.148-2.148a2.864 2.864 0 0 1 1.137-.8l3.132-1.208 2.391 3.587a1.731 1.731 0 0 0 1.274.765q.087.009.173.009a1.727 1.727 0 0 0 .9-.254l-.514 11.8a.586.586 0 0 0 .56.611H35a.586.586 0 0 0 .585-.56l.476-10.937h1.331l.476 10.937a.586.586 0 0 0 .585.56h.026a.586.586 0 0 0 .56-.611l-.514-11.8a1.727 1.727 0 0 0 .9.254c.057 0 .115 0 .173-.009a1.731 1.731 0 0 0 1.274-.765l2.391-3.587 2.76 1.064a.586.586 0 0 0 .422-1.094zm-14.8-7.842a1.169 1.169 0 0 0-1.215-.953.56.56 0 0 1-.151-.01.626.626 0 0 1-.453-.629v-.442a.613.613 0 0 1 .459-.614.564.564 0 0 1 .555.213.829.829 0 0 0 1.139.179 4.466 4.466 0 0 0 1.2-1.267.586.586 0 0 0-.99-.627 3.337 3.337 0 0 1-.651.754 1.732 1.732 0 0 0-.688-.371A14.088 14.088 0 0 1 30.4 5.21a2.182 2.182 0 0 1 .879-1.994 2.026 2.026 0 0 1 .934-.3.592.592 0 0 0 .4-.162 6.958 6.958 0 0 1 4.137-1.566c2.381-.129 4.22.474 5.318 1.742 1.113 1.285 1.479 3.259 1.07 5.728a2.622 2.622 0 0 0-.565.039l-.587-1.41a.586.586 0 0 0-.69-.341c-.057.015-5.752 1.468-8.153-1.521a.586.586 0 0 0-.914.734c2.436 3.032 7.286 2.353 8.864 2.034l.456 1.1a.982.982 0 0 0 1.135.582 1.368 1.368 0 0 1 .473-.034.61.61 0 0 1 .46.606v.449a.626.626 0 0 1-.453.629.554.554 0 0 1-.151.01 1.169 1.169 0 0 0-1.215.953 5.165 5.165 0 0 1-10.16 0zm2.78 10.894a.566.566 0 0 1-.871-.086l-2.409-3.613 1-1 3.722 3.257zm1.685.822l.039-.888.576-.576.576.576.039.888zm.615-3.071l-3.444-3.014v-1.246a6.335 6.335 0 0 0 6.889 0v1.246zm3.177 2.163a.563.563 0 0 1-.415.249.557.557 0 0 1-.456-.163l-1.443-1.443 3.714-3.256 1 1z" class="cls-1" data-name="Path 63" transform="translate(-24.048)"/>
            </g>
        </g>
        <g id="Group_93" data-name="Group 93" transform="translate(40.331 21.919)">
            <g id="Group_92" data-name="Group 92">
                <path id="Path_64" d="M252.427 286.161a2.467 2.467 0 0 0-2.465-2.465h-3.8V282.4a1.841 1.841 0 0 0-1.838-1.838h-3.758a1.841 1.841 0 0 0-1.838 1.838v1.3h-3.8a2.467 2.467 0 0 0-2.465 2.465v1.74a3.1 3.1 0 0 0 .626 1.827v6.517a2.4 2.4 0 0 0 2.4 2.4H249.4a2.4 2.4 0 0 0 2.4-2.4v-6.517a3.1 3.1 0 0 0 .626-1.827v-1.74zM239.9 282.4a.667.667 0 0 1 .667-.667h3.758a.667.667 0 0 1 .667.667v1.3H239.9zm11.353 5.5c0 1.006-.952 2-2.586 2.748v-.1a.586.586 0 0 0-.586-.586h-2.505a.586.586 0 0 0-.586.586v1.879a1.838 1.838 0 1 0 3.677 0v-.5a9.064 9.064 0 0 0 1.959-1.052v5.374a1.23 1.23 0 0 1-1.229 1.229h-13.903a1.231 1.231 0 0 1-1.229-1.229v-5.379a9.066 9.066 0 0 0 1.959 1.052v.5a1.838 1.838 0 0 0 3.629.416 19.615 19.615 0 0 0 2.593.17c.214 0 .431 0 .645-.01a.586.586 0 1 0-.037-1.171c-.2.006-.406.01-.608.01a18.4 18.4 0 0 1-2.545-.174v-1.118a.586.586 0 0 0-.586-.586h-2.505a.586.586 0 0 0-.586.586v.1c-1.634-.745-2.586-1.743-2.586-2.748v-1.74a1.294 1.294 0 0 1 1.293-1.293h15.03a1.294 1.294 0 0 1 1.293 1.293zm-3.757 3.23v1.293a.667.667 0 0 1-1.333 0v-1.293zm-10.1 1.293v-1.293h1.333v1.293a.667.667 0 1 1-1.333 0z" class="cls-1" data-name="Path 64" transform="translate(-232.467 -280.565)"/>
            </g>
        </g>
    </g>
</svg>
