<svg xmlns="http://www.w3.org/2000/svg" width="40" height="40" viewBox="0 0 40 40">
    <defs>
        <style>
            .cls-1{fill:#ed1f24}
        </style>
    </defs>
    <g id="guarantee">
        <g id="Group_87" data-name="Group 87" transform="translate(8.724 9.207)">
            <g id="Group_86" data-name="Group 86">
                <path id="Path_61" d="M116.461 107.217a.741.741 0 0 0-.428-.219v.022l-6.9-1-3.085-6.281a.742.742 0 0 0-1.327 0l-3.085 6.251-6.9 1a.742.742 0 0 0-.408 1.268l4.991 4.865-1.179 6.867a.742.742 0 0 0 1.075.779l6.162-3.233 6.17 3.241a.742.742 0 0 0 1.083-.777l-1.179-6.867 4.991-4.865a.742.742 0 0 0 .019-1.051zm-6.323 5.127a.742.742 0 0 0-.215.653l.986 5.777-5.191-2.729a.742.742 0 0 0-.69 0l-5.191 2.729.986-5.777a.742.742 0 0 0-.215-.653l-4.2-4.086 5.8-.845a.742.742 0 0 0 .556-.408l2.618-5.235 2.6 5.25a.742.742 0 0 0 .556.408l5.8.845z" class="cls-1" data-name="Path 61" transform="translate(-94.108 -99.327)"/>
            </g>
        </g>
        <g id="Group_89" data-name="Group 89">
            <g id="Group_88" data-name="Group 88">
                <path id="Path_62" d="M39.852 19.058l-3.211-3.967.482-5.035a.742.742 0 0 0-.46-.742l-4.7-1.921L29.856 2.8a.742.742 0 0 0-.779-.423l-5.006.742-4.123-2.97a.742.742 0 0 0-.89 0L15.091 3.36l-5.035-.482a.742.742 0 0 0-.742.467l-1.92 4.694L2.8 10.145a.742.742 0 0 0-.423.779l.742 5.006-2.97 4.122a.742.742 0 0 0 0 .89l3.137 3.967-.486 5.036a.742.742 0 0 0 .467.742l4.768 1.921 2.106 4.6a.742.742 0 0 0 .779.423l5.006-.742 4.123 2.966a.742.742 0 0 0 .89 0l3.967-3.137 5.035.482a.742.742 0 0 0 .742-.46l1.921-4.776 4.6-2.106a.742.742 0 0 0 .423-.779l-.742-5.006 2.966-4.123a.742.742 0 0 0 .001-.892zm-4.368 4.4a.741.741 0 0 0-.126.534l.69 4.746-4.368 1.993a.742.742 0 0 0-.378.4L29.53 35.58l-4.776-.452a.742.742 0 0 0-.527.156L20.46 38.25l-3.908-2.781a.742.742 0 0 0-.43-.141h-.1l-4.746.69-1.995-4.36a.742.742 0 0 0-.4-.378l-4.454-1.773.452-4.776a.742.742 0 0 0-.156-.527l-2.965-3.766 2.781-3.908a.741.741 0 0 0 .126-.53l-.69-4.746 4.368-1.999a.742.742 0 0 0 .378-.4l1.772-4.449 4.776.452A.742.742 0 0 0 15.8 4.7l3.767-2.966 3.908 2.781a.741.741 0 0 0 .525.127l4.746-.69 1.995 4.368a.742.742 0 0 0 .4.378l4.459 1.773-.452 4.776a.742.742 0 0 0 .156.527l2.966 3.767z" class="cls-1" data-name="Path 62"/>
            </g>
        </g>
    </g>
</svg>
