<svg xmlns="http://www.w3.org/2000/svg" width="53.959" height="40" viewBox="0 0 53.959 40">
    <defs>
        <style>
            .cls-1{fill:#ed1f24}
        </style>
    </defs>
    <g id="handshake" transform="translate(0 -66.227)">
        <g id="Group_95" data-name="Group 95" transform="translate(0 66.227)">
            <g id="Group_94" data-name="Group 94">
                <path id="Path_65" d="M53.706 77.276L43.241 66.811a.862.862 0 0 0-1.219 0l-5.232 5.233a.862.862 0 0 0 0 1.219l.522.522-1.2 1.2a2.694 2.694 0 0 1-3.007.528 7.443 7.443 0 0 0-6.637.247 5.808 5.808 0 0 0-3.373.18 2.683 2.683 0 0 1-2.846-.6L18.1 73.187l.257-.257a.862.862 0 0 0 0-1.219l-5.237-5.232a.862.862 0 0 0-1.219 0L.253 78.128a.862.862 0 0 0 0 1.219l5.232 5.232a.862.862 0 0 0 1.219 0l.312-.312 1.519 1.519a2.635 2.635 0 0 1 .735 1.384 13.533 13.533 0 0 0 3.749 7.116l.286.286a3.1 3.1 0 0 0 2.25 5.234h.155a3.1 3.1 0 0 0 3.1 3.257h.069a3.1 3.1 0 0 0 5.292 2.261c.049-.049.1-.1.141-.152a2.9 2.9 0 0 0 3.657-1.691l.088.088a2.9 2.9 0 0 0 4.765-1.041 2.9 2.9 0 0 0 4.6-2.344 2.923 2.923 0 0 0-.081-.685 2.9 2.9 0 0 0 1.78-4.516l.691-.691a13.529 13.529 0 0 0 3.765-7.205 2.328 2.328 0 0 1 .658-1.234l2.565-2.578.452.452a.862.862 0 0 0 1.219 0l5.232-5.232a.862.862 0 0 0 0-1.219zM6.094 82.751l-4.013-4.014 10.43-10.43 4.014 4.014zm10.434 14.93a1.378 1.378 0 1 1 0-1.949 1.38 1.38 0 0 1 .001 1.949zm3.251 3.251a1.377 1.377 0 1 1 0-1.949 1.368 1.368 0 0 1 .001 1.949zm3.168 3.168a1.377 1.377 0 1 1 0-1.949 1.369 1.369 0 0 1 .001 1.949zm14.637-6.615a1.172 1.172 0 0 1-1.659 0l-8.36-8.358a.862.862 0 0 0-1.219 1.219l9.005 9a1.174 1.174 0 1 1-1.66 1.66l-1.519-1.519-.025-.026-.008-.007-6.984-6.984a.862.862 0 0 0-1.219 1.219l7.006 7.006a1.173 1.173 0 0 1-1.671 1.648l-7.6-7.6a.862.862 0 0 0-1.219 1.219l5.631 5.631a1.174 1.174 0 0 1-.831 2 1.2 1.2 0 0 1-.222-.022 3.1 3.1 0 0 0-3.066-3.561h-.069a3.1 3.1 0 0 0-3.1-3.169h-.155a3.1 3.1 0 0 0-3.8-3.174l-.618-.618a11.815 11.815 0 0 1-3.273-6.214 4.353 4.353 0 0 0-1.21-2.287l-1.504-1.5 8.643-8.643 2.154 2.154a4.394 4.394 0 0 0 3.11 1.271 4.518 4.518 0 0 0 1.544-.272 4.056 4.056 0 0 1 .753-.193L19.1 82.7a3.456 3.456 0 0 0 4.888 4.888l2.68-2.68.725.726.03.03.029.029.025.024 10.1 10.1a1.174 1.174 0 0 1 0 1.66zm5.428-12.856a4.042 4.042 0 0 0-1.135 2.148 11.813 11.813 0 0 1-3.287 6.291l-.662.662-5.452-5.452c.118.009.237.015.357.015a4.4 4.4 0 0 0 1.679-.327.862.862 0 1 0-.653-1.6c-2.218.907-4.877-1.593-5.173-1.882l-.015-.014-.031-.031-.027-.027-.725-.726.823-.823a.862.862 0 1 0-1.219-1.219l-1.43 1.43-3.288 3.288a1.733 1.733 0 1 1-2.45-2.45L26 78.245a5.715 5.715 0 0 1 6.4-1.163 4.426 4.426 0 0 0 4.938-.879l1.2-1.2 7.053 7.053zm4.852-2.729l-9.246-9.246 4.014-4.014 9.246 9.246z" class="cls-1" data-name="Path 65" transform="translate(0 -66.227)"/>
            </g>
        </g>
        <g id="Group_97" data-name="Group 97" transform="translate(47.871 77.683)">
            <g id="Group_96" data-name="Group 96">
                <circle id="Ellipse_1" cx=".862" cy=".862" r=".862" class="cls-1" data-name="Ellipse 1"/>
            </g>
        </g>
        <g id="Group_99" data-name="Group 99" transform="translate(4.784 78.534)">
            <g id="Group_98" data-name="Group 98">
                <circle id="Ellipse_2" cx=".862" cy=".862" r=".862" class="cls-1" data-name="Ellipse 2"/>
            </g>
        </g>
    </g>
</svg>
