<svg xmlns="http://www.w3.org/2000/svg" width="46.545" height="40" viewBox="0 0 46.545 40">
    <defs>
        <style>
            .cls-1{fill:#ed1f24}
        </style>
    </defs>
    <g id="moving-truck" transform="translate(0 -36)">
        <g id="Group_12" data-name="Group 12" transform="translate(18.909 36)">
            <g id="Group_11" data-name="Group 11">
                <path id="Path_23" d="M218.909 36h-10.182a.727.727 0 0 0 0 1.455h10.182a.727.727 0 0 0 0-1.455z" class="cls-1" data-name="Path 23" transform="translate(-208 -36)"/>
            </g>
        </g>
        <g id="Group_14" data-name="Group 14" transform="translate(25.455 36)">
            <g id="Group_13" data-name="Group 13">
                <path id="Path_24" d="M280.727 36a.727.727 0 0 0-.727.727v3.636a.727.727 0 1 0 1.455 0v-3.636a.727.727 0 0 0-.728-.727z" class="cls-1" data-name="Path 24" transform="translate(-280 -36)"/>
            </g>
        </g>
        <g id="Group_16" data-name="Group 16" transform="translate(22.545 39.636)">
            <g id="Group_15" data-name="Group 15">
                <path id="Path_25" d="M251.636 76h-2.909a.727.727 0 0 0 0 1.455h2.909a.727.727 0 0 0 0-1.455z" class="cls-1" data-name="Path 25" transform="translate(-248 -76)"/>
            </g>
        </g>
        <g id="Group_18" data-name="Group 18" transform="translate(22.545 36)">
            <g id="Group_17" data-name="Group 17">
                <path id="Path_26" d="M248.727 36a.727.727 0 0 0-.727.727v3.636a.727.727 0 1 0 1.455 0v-3.636a.727.727 0 0 0-.728-.727z" class="cls-1" data-name="Path 26" transform="translate(-248 -36)"/>
            </g>
        </g>
        <g id="Group_20" data-name="Group 20" transform="translate(10.182 50.545)">
            <g id="Group_19" data-name="Group 19">
                <path id="Path_27" d="M121.455 196h-8.727a.727.727 0 1 0 0 1.455h8.727a.727.727 0 1 0 0-1.455z" class="cls-1" data-name="Path 27" transform="translate(-112 -196)"/>
            </g>
        </g>
        <g id="Group_22" data-name="Group 22" transform="translate(29.091 49.091)">
            <g id="Group_21" data-name="Group 21">
                <path id="Path_28" d="M320.727 180a.727.727 0 0 0-.727.727v12.364a.727.727 0 1 0 1.455 0v-12.364a.727.727 0 0 0-.728-.727z" class="cls-1" data-name="Path 28" transform="translate(-320 -180)"/>
            </g>
        </g>
        <g id="Group_24" data-name="Group 24" transform="translate(42.924 67.273)">
            <g id="Group_23" data-name="Group 23">
                <path id="Path_29" d="M475.062 380H472.9a.727.727 0 0 0 0 1.455h2.167a.727.727 0 1 0 0-1.455z" class="cls-1" data-name="Path 29" transform="translate(-472.168 -380)"/>
            </g>
        </g>
        <g id="Group_26" data-name="Group 26" transform="translate(45.091 67.273)">
            <g id="Group_25" data-name="Group 25">
                <path id="Path_30" d="M496.727 380a.727.727 0 0 0-.727.727v2.909a.727.727 0 1 0 1.455 0v-2.909a.727.727 0 0 0-.728-.727z" class="cls-1" data-name="Path 30" transform="translate(-496 -380)"/>
            </g>
        </g>
        <g id="Group_28" data-name="Group 28" transform="translate(1.455 70.182)">
            <g id="Group_27" data-name="Group 27">
                <path id="Path_31" d="M21.818 412l-5.091.015a.727.727 0 0 0 0 1.455l5.091-.015a.727.727 0 0 0 0-1.455z" class="cls-1" data-name="Path 31" transform="translate(-16 -412)"/>
            </g>
        </g>
        <g id="Group_30" data-name="Group 30" transform="translate(43.636 63.636)">
            <g id="Group_29" data-name="Group 29">
                <path id="Path_32" d="M481.455 340h-.727a.727.727 0 0 0 0 1.455h.727a.727.727 0 1 0 0-1.455z" class="cls-1" data-name="Path 32" transform="translate(-480 -340)"/>
            </g>
        </g>
        <g id="Group_32" data-name="Group 32" transform="translate(44.364 58.545)">
            <g id="Group_31" data-name="Group 31">
                <path id="Path_33" d="M488.727 284a.727.727 0 0 0-.727.727v8.727a.727.727 0 1 0 1.455 0v-8.727a.727.727 0 0 0-.728-.727z" class="cls-1" data-name="Path 33" transform="translate(-488 -284)"/>
            </g>
        </g>
        <g id="Group_34" data-name="Group 34" transform="translate(29.091 49.091)">
            <g id="Group_33" data-name="Group 33">
                <path id="Path_34" d="M331.636 180h-10.909a.727.727 0 0 0 0 1.455h10.909a.727.727 0 1 0 0-1.455z" class="cls-1" data-name="Path 34" transform="translate(-320 -180)"/>
            </g>
        </g>
        <g id="Group_36" data-name="Group 36" transform="translate(40 49.091)">
            <g id="Group_35" data-name="Group 35">
                <path id="Path_35" d="M445.75 189.877l-4.364-9.455a.727.727 0 0 0-1.321.609l4.364 9.455a.728.728 0 0 0 .661.423.727.727 0 0 0 .66-1.032z" class="cls-1" data-name="Path 35" transform="translate(-439.999 -180)"/>
            </g>
        </g>
        <g id="Group_38" data-name="Group 38" transform="translate(1.455 67.273)">
            <g id="Group_37" data-name="Group 37">
                <path id="Path_36" d="M16.727 380a.727.727 0 0 0-.727.727v2.955a.727.727 0 1 0 1.455 0v-2.955a.727.727 0 0 0-.728-.727z" class="cls-1" data-name="Path 36" transform="translate(-16 -380)"/>
            </g>
        </g>
        <g id="Group_40" data-name="Group 40" transform="translate(0 57.818)">
            <g id="Group_39" data-name="Group 39">
                <path id="Path_37" d="M.727 276a.727.727 0 0 0-.727.727v9.455a.727.727 0 0 0 1.455 0v-9.455A.727.727 0 0 0 .727 276z" class="cls-1" data-name="Path 37" transform="translate(0 -276)"/>
            </g>
        </g>
        <g id="Group_42" data-name="Group 42" transform="translate(0 57.818)">
            <g id="Group_41" data-name="Group 41">
                <path id="Path_38" d="M29.818 276H.727a.727.727 0 0 0 0 1.455h29.091a.727.727 0 0 0 0-1.455z" class="cls-1" data-name="Path 38" transform="translate(0 -276)"/>
            </g>
        </g>
        <g id="Group_44" data-name="Group 44" transform="translate(0 67.273)">
            <g id="Group_43" data-name="Group 43">
                <path id="Path_39" d="M4.364 380H.727a.727.727 0 1 0 0 1.455h3.637a.727.727 0 1 0 0-1.455z" class="cls-1" data-name="Path 39" transform="translate(0 -380)"/>
            </g>
        </g>
        <g id="Group_46" data-name="Group 46" transform="translate(6.545 65.818)">
            <g id="Group_45" data-name="Group 45">
                <path id="Path_40" d="M77.091 364a5.091 5.091 0 1 0 5.091 5.091A5.1 5.1 0 0 0 77.091 364zm0 8.727a3.636 3.636 0 1 1 3.636-3.636 3.64 3.64 0 0 1-3.636 3.636z" class="cls-1" data-name="Path 40" transform="translate(-72 -364)"/>
            </g>
        </g>
        <g id="Group_48" data-name="Group 48" transform="translate(9.455 68.727)">
            <g id="Group_47" data-name="Group 47">
                <path id="Path_41" d="M106.182 396a2.182 2.182 0 1 0 2.182 2.182 2.184 2.184 0 0 0-2.182-2.182zm0 2.909a.727.727 0 1 1 .727-.727.728.728 0 0 1-.727.727z" class="cls-1" data-name="Path 41" transform="translate(-104 -396)"/>
            </g>
        </g>
        <g id="Group_50" data-name="Group 50" transform="translate(33.455 68.727)">
            <g id="Group_49" data-name="Group 49">
                <path id="Path_42" d="M370.182 396a2.182 2.182 0 1 0 2.182 2.182 2.184 2.184 0 0 0-2.182-2.182zm0 2.909a.727.727 0 1 1 .727-.727.728.728 0 0 1-.727.727z" class="cls-1" data-name="Path 42" transform="translate(-368 -396)"/>
            </g>
        </g>
        <g id="Group_52" data-name="Group 52" transform="translate(30.545 65.818)">
            <g id="Group_51" data-name="Group 51">
                <path id="Path_43" d="M341.091 364a5.091 5.091 0 1 0 5.091 5.091 5.1 5.1 0 0 0-5.091-5.091zm0 8.727a3.636 3.636 0 1 1 3.636-3.636 3.64 3.64 0 0 1-3.636 3.636z" class="cls-1" data-name="Path 43" transform="translate(-336 -364)"/>
            </g>
        </g>
        <g id="Group_54" data-name="Group 54" transform="translate(15.273 70.182)">
            <g id="Group_53" data-name="Group 53">
                <path id="Path_44" d="M184.018 412h-15.291a.727.727 0 0 0 0 1.455h15.291a.727.727 0 1 0 0-1.455z" class="cls-1" data-name="Path 44" transform="translate(-168 -412)"/>
            </g>
        </g>
        <g id="Group_56" data-name="Group 56" transform="translate(39.273 70.182)">
            <g id="Group_55" data-name="Group 55">
                <path id="Path_45" d="M438.545 412h-5.818a.727.727 0 1 0 0 1.455h5.818a.727.727 0 0 0 0-1.455z" class="cls-1" data-name="Path 45" transform="translate(-432 -412)"/>
            </g>
        </g>
        <g id="Group_58" data-name="Group 58" transform="translate(35.636 58.545)">
            <g id="Group_57" data-name="Group 57">
                <path id="Path_46" d="M401.455 284h-8.727a.727.727 0 0 0 0 1.455h8.727a.727.727 0 0 0 0-1.455z" class="cls-1" data-name="Path 46" transform="translate(-392 -284)"/>
            </g>
        </g>
        <g id="Group_60" data-name="Group 60" transform="translate(32.727 55.636)">
            <g id="Group_59" data-name="Group 59">
                <path id="Path_47" d="M363.636 254.909a2.184 2.184 0 0 1-2.182-2.182.727.727 0 0 0-1.455 0 3.64 3.64 0 0 0 3.636 3.636.727.727 0 0 0 0-1.455z" class="cls-1" data-name="Path 47" transform="translate(-360 -252)"/>
            </g>
        </g>
        <g id="Group_62" data-name="Group 62" transform="translate(32.727 49.091)">
            <g id="Group_61" data-name="Group 61">
                <path id="Path_48" d="M360.727 180a.727.727 0 0 0-.727.727v6.545a.727.727 0 1 0 1.455 0v-6.545a.727.727 0 0 0-.728-.727z" class="cls-1" data-name="Path 48" transform="translate(-360 -180)"/>
            </g>
        </g>
        <g id="Group_64" data-name="Group 64" transform="translate(29.091 36)">
            <g id="Group_63" data-name="Group 63">
                <path id="Path_49" d="M320.727 36a.727.727 0 0 0-.727.727v21.818a.727.727 0 1 0 1.455 0V36.727a.727.727 0 0 0-.728-.727z" class="cls-1" data-name="Path 49" transform="translate(-320 -36)"/>
            </g>
        </g>
        <g id="Group_66" data-name="Group 66" transform="translate(18.909 36)">
            <g id="Group_65" data-name="Group 65">
                <path id="Path_50" d="M208.727 36a.727.727 0 0 0-.727.727v21.818a.727.727 0 1 0 1.455 0V36.727a.727.727 0 0 0-.728-.727z" class="cls-1" data-name="Path 50" transform="translate(-208 -36)"/>
            </g>
        </g>
        <g id="Group_68" data-name="Group 68" transform="translate(10.182 41.818)">
            <g id="Group_67" data-name="Group 67">
                <path id="Path_51" d="M112.727 100a.727.727 0 0 0-.727.727v16a.727.727 0 0 0 1.455 0v-16a.727.727 0 0 0-.728-.727z" class="cls-1" data-name="Path 51" transform="translate(-112 -100)"/>
            </g>
        </g>
        <g id="Group_70" data-name="Group 70" transform="translate(14.545 50.545)">
            <g id="Group_69" data-name="Group 69">
                <path id="Path_52" d="M160.727 196a.727.727 0 0 0-.727.727v2.182a.727.727 0 0 0 1.455 0v-2.182a.727.727 0 0 0-.728-.727z" class="cls-1" data-name="Path 52" transform="translate(-160 -196)"/>
            </g>
        </g>
        <g id="Group_72" data-name="Group 72" transform="translate(10.182 41.818)">
            <g id="Group_71" data-name="Group 71">
                <path id="Path_53" d="M121.455 100h-8.727a.727.727 0 0 0 0 1.455h8.727a.727.727 0 0 0 0-1.455z" class="cls-1" data-name="Path 53" transform="translate(-112 -100)"/>
            </g>
        </g>
        <g id="Group_74" data-name="Group 74" transform="translate(14.545 41.818)">
            <g id="Group_73" data-name="Group 73">
                <path id="Path_54" d="M160.727 100a.727.727 0 0 0-.727.727v1.455a.727.727 0 1 0 1.455 0v-1.455a.727.727 0 0 0-.728-.727z" class="cls-1" data-name="Path 54" transform="translate(-160 -100)"/>
            </g>
        </g>
        <g id="Group_76" data-name="Group 76" transform="translate(1.455 46.909)">
            <g id="Group_75" data-name="Group 75">
                <path id="Path_55" d="M16.727 156a.727.727 0 0 0-.727.727v10.909a.727.727 0 1 0 1.455 0v-10.909a.727.727 0 0 0-.728-.727z" class="cls-1" data-name="Path 55" transform="translate(-16 -156)"/>
            </g>
        </g>
        <g id="Group_78" data-name="Group 78" transform="translate(1.455 46.909)">
            <g id="Group_77" data-name="Group 77">
                <path id="Path_56" d="M25.455 156h-8.728a.727.727 0 1 0 0 1.455h8.727a.727.727 0 1 0 0-1.455z" class="cls-1" data-name="Path 56" transform="translate(-16 -156)"/>
            </g>
        </g>
        <g id="Group_80" data-name="Group 80" transform="translate(4.364 46.909)">
            <g id="Group_79" data-name="Group 79">
                <path id="Path_57" d="M48.727 156a.727.727 0 0 0-.727.727v2.182a.727.727 0 1 0 1.455 0v-2.182a.727.727 0 0 0-.728-.727z" class="cls-1" data-name="Path 57" transform="translate(-48 -156)"/>
            </g>
        </g>
        <g id="Group_82" data-name="Group 82" transform="translate(4.364 49.091)">
            <g id="Group_81" data-name="Group 81">
                <path id="Path_58" d="M51.636 180h-2.909a.727.727 0 0 0 0 1.455h2.909a.727.727 0 1 0 0-1.455z" class="cls-1" data-name="Path 58" transform="translate(-48 -180)"/>
            </g>
        </g>
        <g id="Group_84" data-name="Group 84" transform="translate(7.273 46.909)">
            <g id="Group_83" data-name="Group 83">
                <path id="Path_59" d="M80.727 156a.727.727 0 0 0-.727.727v2.182a.727.727 0 1 0 1.455 0v-2.182a.727.727 0 0 0-.728-.727z" class="cls-1" data-name="Path 59" transform="translate(-80 -156)"/>
            </g>
        </g>
    </g>
</svg>
