<svg id="Layer_1" enable-background="new 0 0 512 512" height="512" viewBox="0 0 512 512" width="512" xmlns="http://www.w3.org/2000/svg"><g><g><g><path d="m147.388 109.81v-25.477c0-29.959 24.374-54.333 54.334-54.333 29.959 0 54.333 24.374 54.333 54.333v25.477h30v-25.477c-.001-46.501-37.832-84.333-84.334-84.333-46.501 0-84.334 37.832-84.334 84.333v25.477z" fill="#fdd902"/></g><g><path d="m363.594 102.333h-77.54l-18.245 222.068 18.245 157.597h77.54z" fill="#7f66ff"/><path d="m28.006 102.333v409.667h60.108l197.94-30.002v-379.665z" fill="#a079ff"/></g></g><g><g><path d="m286.055 166.5-7.579 11.15 7.579 18.85c26.213 0 47.539 21.326 47.539 47.539v17.264h30v-17.264c0-42.755-34.784-77.539-77.539-77.539z" fill="#fd7cb7"/><path d="m208.515 244.039v17.264h30v-17.264c0-26.213 21.326-47.539 47.539-47.539v-30c-42.755 0-77.539 34.784-77.539 77.539z" fill="#fd93ef"/></g><g><g><path d="m286.054 448 197.94-21.334v-89.666l-197.94-17-7.579 64z" fill="#f7f0eb"/><path d="m88.115 426.666 197.939 21.334v-128l-197.939 17z" fill="#fffbf5"/></g><path d="m286.054 251.666-7.579 46.996 7.579 38.338h197.94v-85.334z" fill="#fdb902"/><path d="m286.054 512h197.94v-85.334h-197.94l-7.579 42.667z" fill="#fdb902"/><g fill="#fdd902"><path d="m88.115 251.666h197.94v85.334h-197.94z"/><path d="m88.115 426.666h197.94v85.334h-197.94z"/></g></g></g></g></svg>