<svg xmlns="http://www.w3.org/2000/svg" width="39.989" height="40" viewBox="0 0 39.989 40">
    <g id="tools" transform="translate(.928 1)">
        <g id="Group_85" data-name="Group 85" transform="translate(-.928 -1)">
            <path id="Path_60" fill="#ed1f24" d="M36.786 29.2a5.267 5.267 0 0 0-2.758-.95 49.858 49.858 0 0 1-7.437-5.58L22.3 18.387l2.6-2.913a4.458 4.458 0 0 0 1.553.537 5.068 5.068 0 0 0 .933.067 1.341 1.341 0 0 1 1.2.466 1.075 1.075 0 0 0-.4.866 1.469 1.469 0 0 0 .4 1l2.332 2.332a1.815 1.815 0 0 0 1.4.6 1.674 1.674 0 0 0 1.4-.666l4.731-4.731a1.815 1.815 0 0 0 .6-1.4 1.918 1.918 0 0 0-.6-1.4l-2.329-2.331a1.316 1.316 0 0 0-.933-.4 1.674 1.674 0 0 0-.933.4 1.11 1.11 0 0 1-.533-1.133 2.945 2.945 0 0 0-.133-1 4.665 4.665 0 0 0-1.333-2.6l-2.4-2.4A10.852 10.852 0 0 0 25.992.819C22.127-.98 18.2-.647 12.465 1.952a.6.6 0 0 0-.4.733.649.649 0 0 0 .666.533h.869c2.932 0 4.464 0 7.13 2.665a3.165 3.165 0 0 1 .155 4.273.609.609 0 0 0-.355.191l-2.96 3.3-2.24-2.233a28.941 28.941 0 0 1-5.52-7.377A5.277 5.277 0 0 0 8.267.553 5.468 5.468 0 0 0 3.936-.98a.849.849 0 0 0-.466.333.605.605 0 0 0 0 .666l1.865 3.332A2.345 2.345 0 0 1 3.07 4.684l-1.932-3.2A.594.594 0 0 0 .6 1.152a.49.49 0 0 0-.533.267 5.249 5.249 0 0 0 1.4 7.263 5.284 5.284 0 0 0 2.7.986c.011 0 .02.01.031.014a28.928 28.928 0 0 1 7.4 5.531l2.437 2.382L-.128 33.4a2.821 2.821 0 0 0-.8 2 2.669 2.669 0 0 0 .8 1.932l.933.933A2.864 2.864 0 0 0 2.67 39a2.782 2.782 0 0 0 1.93-.8l14.151-15.836 4.109 4.109a53.849 53.849 0 0 1 5.59 7.453 5.261 5.261 0 0 0 5.271 4.941h.533a.68.68 0 0 0 .533-.333.605.605 0 0 0 0-.666L32.855 34.6a2.44 2.44 0 0 1 2.332-1.333l1.866 3.2a.594.594 0 0 0 .533.333.9.9 0 0 0 .6-.333 5.31 5.31 0 0 0-1.4-7.267zM21.594 4.817c-2.132-2.066-3.731-2.732-5.531-2.932 3.8-1.2 6.6-1.133 9.4.133a9.154 9.154 0 0 1 3.532 2.6l2.4 2.4a3.129 3.129 0 0 1 .933 1.866 3.826 3.826 0 0 1 .067.8 2.451 2.451 0 0 0 .866 2.066 1.469 1.469 0 0 0 1 .4 1.118 1.118 0 0 0 .933-.4l2.332 2.332a.644.644 0 0 1 0 .933l-4.731 4.731a.644.644 0 0 1-.933 0l-2.332-2.332a.928.928 0 0 0 .333-.933 1.469 1.469 0 0 0-.4-1 2.451 2.451 0 0 0-2.066-.866 3.826 3.826 0 0 1-.8-.067 2.957 2.957 0 0 1-1.866-.933l-2.865-2.865a4.4 4.4 0 0 0-.272-5.933zM.671 3.218l1.4 2.4a.68.68 0 0 0 .529.332h.333a3.8 3.8 0 0 0 3.6-2.066l.133-.333a.5.5 0 0 0 0-.6L5.2.419a3.937 3.937 0 0 1 2.135 1.133 4.156 4.156 0 0 1 1.153 2.7.685.685 0 0 0-.02.169 3.887 3.887 0 0 1-.106.9 4.085 4.085 0 0 1-1.694 2.362A4.031 4.031 0 0 1 2.2 7.616 4.058 4.058 0 0 1 .671 3.218zm11.861 11.061A29.291 29.291 0 0 0 6.4 9.348a7.953 7.953 0 0 0 1.066-.533 5.248 5.248 0 0 0 2.066-2.6 31.157 31.157 0 0 0 4.864 6.13l2.289 2.289-1.795 2zM3.67 37.2a1.369 1.369 0 0 1-1.932.067L.8 36.4a1.316 1.316 0 0 1-.4-.933A1.419 1.419 0 0 1 .871 34.4l.377-.422.955.955a.6.6 0 0 0 .466.2.6.6 0 0 0 .466-.2.644.644 0 0 0 0-.933l-1.006-1.005.881-.985 1.06 1.06a.644.644 0 0 0 .933 0 .644.644 0 0 0 0-.933L3.89 31.025l17.139-19.176 2.8 2.8-2.75 3.076a.683.683 0 0 0-.217.153l-2.665 3a.685.685 0 0 0-.162.255zm15.992-15.857l1.824-2.043 4.306 4.306a38.818 38.818 0 0 0 6.263 4.864 5.457 5.457 0 0 0-3.02 2.627l-.017.034-.071.144q-.049.1-.094.207c-.02.047-.041.094-.06.142l-.008.021c-.021.052-.042.1-.062.157q-.568-.833-1.093-1.572l.893-.893a.66.66 0 0 0-.933-.933l-.743.743q-.415-.564-.8-1.063l.612-.612a.66.66 0 0 0-.933-.933l-.509.509q-.735-.885-1.357-1.508zm17.857 13.326l-1.4-2.4a.68.68 0 0 0-.533-.333h-.333A3.689 3.689 0 0 0 31.656 34l-.133.333a.5.5 0 0 0 0 .6l1.466 2.532a3.937 3.937 0 0 1-2.132-1.133 4.169 4.169 0 0 1-1.152-2.632.693.693 0 0 0 .018-.16 4.007 4.007 0 0 1 .735-2.3 4.135 4.135 0 0 1 1.064-1.04 3.719 3.719 0 0 1 2.2-.666 3.989 3.989 0 0 1 2.265.733 4.057 4.057 0 0 1 1.532 4.402z" data-name="Path 60" transform="translate(.928 1)"/>
        </g>
    </g>
</svg>
